<svg width="66" height="66" viewBox="0 0 66 66" fill="none" xmlns="http://www.w3.org/2000/svg">
<g clip-path="url(#clip0_0_277)">
<path d="M49.7834 47.2634H16.2165C15.5987 47.2634 15.0977 46.7591 15.0977 46.1383C15.0977 45.5171 15.5991 45.0132 16.2165 45.0132H49.7834C50.4011 45.0132 50.9021 45.5175 50.9021 46.1383C50.9021 46.7591 50.4011 47.2634 49.7834 47.2634Z" fill="#333333"/>
<path d="M47.6853 47.1227H41.1117C40.494 47.1227 39.9929 46.6184 39.9929 45.9976V24.1898C39.9929 23.8865 40.1151 23.5957 40.3309 23.3842L46.3483 17.4835C46.5575 17.2787 46.8377 17.1641 47.1292 17.1641H47.6849C48.3027 17.1641 48.8037 17.6683 48.8037 18.2892V45.9972C48.8041 46.6184 48.303 47.1223 47.6853 47.1223L47.6853 47.1227ZM42.2305 44.8725H46.566L46.5664 20.4135L42.2309 24.6651L42.2305 44.8725Z" fill="#333333"/>
<path d="M35.6573 47.1227H29.0836C28.4659 47.1227 27.9648 46.6184 27.9648 45.9976V32.7434C27.9648 32.44 28.087 32.1492 28.3028 31.9377L34.8674 25.501C35.0766 25.2961 35.3568 25.1815 35.6483 25.1815C36.266 25.1815 36.7761 25.6858 36.7761 26.3066V45.9976C36.7761 46.6188 36.2746 47.1227 35.6573 47.1227ZM30.2024 44.8725H34.538V28.967L30.2024 33.2187V44.8725Z" fill="#333333"/>
<path d="M23.909 46.8414H17.3353C16.7176 46.8414 16.2166 46.3371 16.2166 45.7163V40.2367C16.2166 39.9333 16.3387 39.6425 16.5545 39.431L22.5841 33.5182C22.7932 33.3133 23.0734 33.1987 23.3649 33.1987H23.9085C24.5263 33.1987 25.0273 33.703 25.0273 34.3238L25.0277 45.7155C25.0277 46.3367 24.5266 46.841 23.9089 46.841L23.909 46.8414ZM18.4541 44.5908H22.7897L22.7901 36.4591L18.4541 40.7108L18.4541 44.5908Z" fill="#333333"/>
</g>
<circle cx="33" cy="33.0005" r="32" stroke="#43BEA2" stroke-width="2"/>
<defs>
<clipPath id="clip0_0_277">
<rect width="36" height="30" fill="white" transform="translate(15 17.0005)"/>
</clipPath>
</defs>
</svg>
