<svg width="36" height="30" viewBox="0 0 36 30" fill="none" xmlns="http://www.w3.org/2000/svg">
<path d="M25.5 27.0005H7.5C6.30653 27.0005 5.16193 26.5264 4.31802 25.6825C3.47411 24.8386 3 23.694 3 22.5005V10.5005C3 10.1027 2.84196 9.72113 2.56066 9.43983C2.27936 9.15852 1.89782 9.00049 1.5 9.00049C1.10218 9.00049 0.720644 9.15852 0.43934 9.43983C0.158035 9.72113 0 10.1027 0 10.5005L0 22.5005C0 24.4896 0.790176 26.3973 2.1967 27.8038C3.60322 29.2103 5.51088 30.0005 7.5 30.0005H25.5C25.8978 30.0005 26.2794 29.8425 26.5607 29.5611C26.842 29.2798 27 28.8983 27 28.5005C27 28.1027 26.842 27.7211 26.5607 27.4398C26.2794 27.1585 25.8978 27.0005 25.5 27.0005ZM31.5 0.000488281H10.5C9.30653 0.000488281 8.16193 0.474594 7.31802 1.31851C6.47411 2.16242 6 3.30701 6 4.50049V19.5005C6 20.694 6.47411 21.8386 7.31802 22.6825C8.16193 23.5264 9.30653 24.0005 10.5 24.0005H31.5C32.6935 24.0005 33.8381 23.5264 34.682 22.6825C35.5259 21.8386 36 20.694 36 19.5005V4.50049C36 3.30701 35.5259 2.16242 34.682 1.31851C33.8381 0.474594 32.6935 0.000488281 31.5 0.000488281ZM30.885 3.00049L22.065 11.8205C21.9256 11.9611 21.7597 12.0727 21.5769 12.1488C21.3941 12.225 21.198 12.2642 21 12.2642C20.802 12.2642 20.6059 12.225 20.4231 12.1488C20.2403 12.0727 20.0744 11.9611 19.935 11.8205L11.115 3.00049H30.885ZM33 19.5005C33 19.8983 32.842 20.2798 32.5607 20.5611C32.2794 20.8425 31.8978 21.0005 31.5 21.0005H10.5C10.1022 21.0005 9.72064 20.8425 9.43934 20.5611C9.15804 20.2798 9 19.8983 9 19.5005V5.05549L17.82 13.8755C18.6638 14.7182 19.8075 15.1915 21 15.1915C22.1925 15.1915 23.3362 14.7182 24.18 13.8755L33 5.05549V19.5005Z" fill="#FFA24A"/>
</svg>
