<svg width="33" height="26" viewBox="0 0 33 26" fill="none" xmlns="http://www.w3.org/2000/svg">
<path d="M16.95 13.0805C17.7504 12.3877 18.3923 11.5308 18.8323 10.568C19.2723 9.60523 19.5 8.55905 19.5 7.50049C19.5 5.51136 18.7098 3.60371 17.3033 2.19719C15.8968 0.790665 13.9891 0.00048855 12 0.00048855C10.0109 0.00048855 8.10322 0.790665 6.6967 2.19719C5.29018 3.60371 4.5 5.51136 4.5 7.50049C4.49999 8.55905 4.7277 9.60523 5.16769 10.568C5.60767 11.5308 6.24963 12.3877 7.05 13.0805C4.95021 14.0313 3.1687 15.5668 1.91847 17.5033C0.668243 19.4398 0.00220778 21.6955 0 24.0005C0 24.3983 0.158035 24.7798 0.43934 25.0611C0.720644 25.3425 1.10218 25.5005 1.5 25.5005C1.89782 25.5005 2.27936 25.3425 2.56066 25.0611C2.84196 24.7798 3 24.3983 3 24.0005C3 21.6135 3.94821 19.3244 5.63604 17.6365C7.32387 15.9487 9.61305 15.0005 12 15.0005C14.3869 15.0005 16.6761 15.9487 18.364 17.6365C20.0518 19.3244 21 21.6135 21 24.0005C21 24.3983 21.158 24.7798 21.4393 25.0611C21.7206 25.3425 22.1022 25.5005 22.5 25.5005C22.8978 25.5005 23.2794 25.3425 23.5607 25.0611C23.842 24.7798 24 24.3983 24 24.0005C23.9978 21.6955 23.3318 19.4398 22.0815 17.5033C20.8313 15.5668 19.0498 14.0313 16.95 13.0805ZM12 12.0005C11.11 12.0005 10.24 11.7366 9.49993 11.2421C8.75991 10.7476 8.18314 10.0448 7.84254 9.22256C7.50195 8.4003 7.41283 7.4955 7.58647 6.62258C7.7601 5.74967 8.18868 4.94784 8.81802 4.31851C9.44736 3.68917 10.2492 3.26059 11.1221 3.08696C11.995 2.91332 12.8998 3.00244 13.7221 3.34303C14.5443 3.68363 15.2471 4.2604 15.7416 5.00042C16.2361 5.74044 16.5 6.61047 16.5 7.50049C16.5 8.69396 16.0259 9.83856 15.182 10.6825C14.3381 11.5264 13.1935 12.0005 12 12.0005ZM26.61 12.4805C27.57 11.3995 28.197 10.0641 28.4157 8.635C28.6344 7.20592 28.4354 5.7441 27.8427 4.42549C27.2499 3.10688 26.2887 1.98768 25.0747 1.20262C23.8607 0.417563 22.4457 0.000101881 21 0.00048855C20.6022 0.00048855 20.2206 0.158524 19.9393 0.439828C19.658 0.721133 19.5 1.10266 19.5 1.50049C19.5 1.89831 19.658 2.27984 19.9393 2.56115C20.2206 2.84245 20.6022 3.00049 21 3.00049C22.1935 3.00049 23.3381 3.47459 24.182 4.31851C25.0259 5.16242 25.5 6.30701 25.5 7.50049C25.4979 8.28835 25.2889 9.06184 24.8941 9.74362C24.4992 10.4254 23.9323 10.9916 23.25 11.3855C23.0276 11.5138 22.8419 11.697 22.7105 11.9176C22.5792 12.1382 22.5067 12.3888 22.5 12.6455C22.4937 12.9001 22.5524 13.1522 22.6705 13.3779C22.7886 13.6036 22.9622 13.7955 23.175 13.9355L23.76 14.3255L23.955 14.4305C25.7631 15.2881 27.2885 16.6445 28.3515 18.34C29.4145 20.0354 29.9708 21.9994 29.955 24.0005C29.955 24.3983 30.113 24.7798 30.3943 25.0611C30.6756 25.3425 31.0572 25.5005 31.455 25.5005C31.8528 25.5005 32.2344 25.3425 32.5157 25.0611C32.797 24.7798 32.955 24.3983 32.955 24.0005C32.9673 21.6986 32.3907 19.4319 31.2802 17.4156C30.1697 15.3993 28.562 13.7005 26.61 12.4805Z" fill="#E23B1A"/>
</svg>
